# xmcd
#
# Track frame offsets:
#	150
#	13565
#	25685
#	47533
#	62920
#
# Disc length: 1004 seconds
#
# Revision: 1
# Processed by: cddbd v1.5.2PL0 Copyright (c) Steve Scherf et al.
# Submitted via: audiograbber 1.83.01
#
DISCID=3303ea05
DTITLE=Various Artist - Castle Gold Collection
DYEAR=1900
DGENRE=Oldies
TTITLE0=Boone, Daniel - Beautiful sunday
TTITLE1=Kincade - Dreams are ten a penny
TTITLE2=First Class - Beach baby
TTITLE3=Da Vinci, Paul - Your baby ain't your baby anymore
TTITLE4=Lighthouse, Edison - Love grows
EXTD=
EXTT0=
EXTT1=
EXTT2=
EXTT3=
EXTT4=
PLAYORDER=
